<?xml version="1.0" encoding="utf-8"?>
<!-- Generator: Adobe Illustrator 24.3.0, SVG Export Plug-In . SVG Version: 6.00 Build 0)  -->
<svg version="1.0" id="katman_1" xmlns="http://www.w3.org/2000/svg" xmlns:xlink="http://www.w3.org/1999/xlink" x="0px" y="0px"
	 viewBox="0 0 756 566" style="enable-background:new 0 0 756 566;" xml:space="preserve">
<style type="text/css">
	.st0{fill:#F1F0D9;}
	.st1{fill:#FCC82F;}
	.st2{fill:#0198FF;}
	.st3{fill:#FD5211;}
	.st4{fill:#FF808B;}
	.st5{fill:#009545;}
	.st6{clip-path:url(#SVGID_2_);fill:#F1F0D9;}
	.st7{clip-path:url(#SVGID_2_);fill:#0099FF;}
	.st8{clip-path:url(#SVGID_4_);fill:#027CFF;}
	.st9{clip-path:url(#SVGID_6_);fill:#FCC82F;}
	.st10{clip-path:url(#SVGID_6_);fill:#F1F0D9;}
	.st11{clip-path:url(#SVGID_6_);fill:#009645;}
	.st12{clip-path:url(#SVGID_8_);fill:#007F2F;}
	.st13{clip-path:url(#SVGID_10_);fill:#F1F0D9;}
	.st14{clip-path:url(#SVGID_10_);}
</style>
<rect x="239.81" y="40.5" width="256.32" height="484.93"/>
<path class="st0" d="M412.06,155.29l-0.44-22.47l-22.29-16.29l-21.38,6.53l-21.38-6.53l-22.29,16.29l-0.43,22.47l-12.78,18.44
	l8.51,26.36l21.11,7.36l13.48,17.92h13.77h13.77l13.48-17.92l21.11-7.36l8.51-26.36L412.06,155.29z M383.09,190.65h-30.25
	l-9.35-28.94l24.48-17.89l24.47,17.89L383.09,190.65z"/>
<polygon class="st1" points="340.01,89.61 363.33,84.94 367.97,108.4 344.65,113.07 "/>
<polygon class="st2" points="311.67,106.47 331.44,93.18 344.65,113.07 324.88,126.36 "/>
<polygon class="st0" points="283.71,165.04 288.35,141.58 311.67,146.25 307.03,169.71 "/>
<polygon class="st3" points="291.9,132.96 305.11,113.07 324.88,126.36 311.67,146.25 "/>
<polygon class="st1" points="288.35,197.83 283.71,174.37 307.03,169.7 311.67,193.16 "/>
<polygon class="st2" points="305.11,226.33 291.9,206.44 311.67,193.16 324.88,213.04 "/>
<polygon class="st0" points="363.33,254.46 340.01,249.79 344.64,226.33 367.96,231 "/>
<polygon class="st3" points="331.44,246.22 311.67,232.93 324.88,213.04 344.65,226.33 "/>
<polygon class="st1" points="395.92,249.8 372.6,254.46 367.96,231 391.28,226.34 "/>
<polygon class="st2" points="424.25,232.94 404.48,246.23 391.27,226.34 411.04,213.05 "/>
<polygon class="st0" points="452.21,174.37 447.57,197.83 424.25,193.17 428.89,169.71 "/>
<polygon class="st3" points="444.02,206.45 430.81,226.34 411.04,213.05 424.25,193.16 "/>
<polygon class="st1" points="447.58,141.58 452.22,165.04 428.9,169.71 424.26,146.25 "/>
<polygon class="st2" points="430.82,113.08 444.03,132.97 424.26,146.25 411.05,126.37 "/>
<polygon class="st0" points="372.6,84.95 395.92,89.61 391.28,113.07 367.96,108.41 "/>
<polygon class="st3" points="404.49,93.19 424.26,106.48 411.05,126.37 391.28,113.08 "/>
<rect x="351.66" y="54.48" class="st4" width="32.6" height="32.79"/>
<polygon class="st5" points="309.08,69.52 339.19,56.97 351.67,87.27 321.55,99.82 "/>
<polygon class="st5" points="255.91,140.76 268.39,110.46 298.5,123.01 286.03,153.31 "/>
<polygon class="st0" points="275.45,99.82 298.5,76.63 321.55,99.82 298.5,123.01 "/>
<rect x="253.43" y="153.31" class="st4" width="32.6" height="32.79"/>
<polygon class="st5" points="268.39,228.94 255.91,198.65 286.03,186.1 298.5,216.39 "/>
<polygon class="st5" points="339.19,282.43 309.08,269.88 321.55,239.58 351.67,252.13 "/>
<polygon class="st0" points="298.5,262.78 275.45,239.59 298.5,216.4 321.55,239.59 "/>
<rect x="351.66" y="252.14" class="st4" width="32.6" height="32.79"/>
<polygon class="st5" points="426.85,269.88 396.73,282.43 384.25,252.13 414.37,239.58 "/>
<polygon class="st5" points="480.01,198.65 467.54,228.95 437.42,216.4 449.89,186.1 "/>
<polygon class="st0" points="460.48,239.59 437.43,262.77 414.38,239.59 437.43,216.4 "/>
<rect x="449.9" y="153.31" class="st4" width="32.6" height="32.79"/>
<polygon class="st5" points="467.54,110.47 480.02,140.76 449.9,153.31 437.43,123.02 "/>
<polygon class="st5" points="396.74,56.98 426.86,69.53 414.38,99.83 384.26,87.28 "/>
<polygon class="st0" points="437.43,76.63 460.48,99.82 437.43,123.01 414.38,99.82 "/>
<g>
	<defs>
		<rect id="SVGID_1_" x="128" y="33" width="500" height="500"/>
	</defs>
	<clipPath id="SVGID_2_">
		<use xlink:href="#SVGID_1_"  style="overflow:visible;"/>
	</clipPath>
	<path class="st6" d="M482.47,383.25l-9.14-45.75l5.65-19.73l-3.64-3c2.72-1.61,4.55-4.6,4.55-8.01c0-5.12-4.12-9.28-9.19-9.28
		c-0.6,0-1.18,0.06-1.74,0.17v-6.47l-11.2,11.11v11.95l1.93,1.48l7.21,5.56l-8.31,2.61l7.25,29.54l-8.54,29.82L482.47,383.25
		L482.47,383.25z M468.95,300.58c0.55-0.16,1.14-0.25,1.74-0.25c3.51,0,6.37,2.89,6.37,6.44c0,3.55-2.86,6.43-6.37,6.43
		c-2.33,0-4.38-1.28-5.48-3.17l3.74-3.86V300.58z M460.57,303.49l5.56-5.52V305l-5.56,5.75V303.49z M461.67,313.68l1.52-1.57
		c1.67,2.38,4.4,3.93,7.5,3.93c0.53,0,1.05-0.05,1.56-0.13h0l3.25,2.67l-5.32,1.67L461.67,313.68z M461.96,325.82l12.95-4.07
		l-7.51,26.23L461.96,325.82z M471.64,343.4l4.82,24.13h-11.74L471.64,343.4z M477.03,370.38l2,10.02h-18l2.87-10.02H477.03z"/>
	<polygon class="st6" points="277.08,353.5 282.6,330.48 279.39,330.48 274.96,348.91 269.92,330.48 269.1,330.48 266.7,330.48 
		265.89,330.48 260.85,348.91 256.42,330.48 253.2,330.48 258.73,353.5 259.59,353.5 261.95,353.5 262.81,353.5 267.9,334.87 
		273,353.5 273.86,353.5 276.22,353.5 	"/>
	<path class="st6" d="M295.18,329.99c-6.67,0-12.07,5.37-12.07,12c0,6.63,5.4,12,12.07,12c6.67,0,12.07-5.37,12.07-12
		C307.25,335.36,301.85,329.99,295.18,329.99 M295.18,350.73c-4.78,0-8.66-3.91-8.66-8.74s3.88-8.74,8.66-8.74
		c4.78,0,8.66,3.91,8.66,8.74S299.97,350.73,295.18,350.73"/>
	<polygon class="st6" points="313.27,336.18 313.27,353.5 310.05,353.5 310.05,330.48 313.01,330.48 321.33,341.1 329.64,330.48 
		332.6,330.48 332.6,353.5 329.39,353.5 329.39,336.19 322.02,345.35 320.64,345.35 	"/>
	<path class="st6" d="M354.57,333.73v-3.25H336.4v16.72c0,3.48,2.79,6.3,6.24,6.3h11.93v-3.25h-11.52c-1.89,0-3.42-1.55-3.42-3.46
		v-3.31h14.41v-3.25h-14.41v-6.5H354.57z"/>
	<polygon class="st6" points="357.63,330.48 360.84,330.48 375.03,347.79 375.03,330.48 378.24,330.48 378.24,353.5 375.03,353.5 
		360.84,336.19 360.84,353.5 357.63,353.5 	"/>
	<polygon class="st6" points="382.96,330.48 382.09,339.46 384.7,339.46 386.78,330.48 	"/>
	<path class="st6" d="M411.33,346.93c0,3.62-2.91,6.57-6.5,6.57h-14.57v-3.25h14.57c1.81,0,3.28-1.48,3.28-3.32
		c0-1.83-1.47-3.32-3.28-3.32h-8.71c-3.59,0-6.5-2.94-6.5-6.57c0-3.62,2.91-6.57,6.5-6.57h14v3.25h-14c-1.81,0-3.28,1.48-3.28,3.32
		c0,1.83,1.47,3.32,3.28,3.32h8.71C408.42,340.36,411.33,343.31,411.33,346.93"/>
	<polygon class="st6" points="274.96,378.65 269.92,360.22 265.89,360.22 260.84,378.65 256.42,360.22 253.2,360.22 258.73,383.24 
		259.59,383.24 261.95,383.24 262.81,383.24 267.9,364.61 273,383.24 273.86,383.24 276.22,383.24 277.08,383.24 282.6,360.22 
		279.38,360.22 	"/>
	<path class="st6" d="M295.18,359.73c-6.67,0-12.07,5.37-12.07,12s5.4,12,12.07,12c6.67,0,12.07-5.37,12.07-12
		C307.25,365.1,301.85,359.73,295.18,359.73 M295.18,380.47c-4.78,0-8.66-3.92-8.66-8.74c0-4.83,3.88-8.74,8.66-8.74
		c4.78,0,8.66,3.92,8.66,8.74C303.84,376.56,299.97,380.47,295.18,380.47"/>
	<path class="st6" d="M421.77,360.22v14.4c0,5.03-4.7,9.1-10.51,9.1c-5.8,0-10.5-4.08-10.5-9.1v-14.4h3.22v14.4
		c0,3.23,3.26,5.85,7.29,5.85c4.02,0,7.29-2.62,7.29-5.85v-14.4H421.77z"/>
	<path class="st6" d="M318.36,373.44h4.57c3.61,0,6.54-2.96,6.54-6.61c0-3.65-2.93-6.61-6.54-6.61h-12.88v23.02h3.22v-9.8h0.37
		l11.48,9.8h5.05L318.36,373.44z M313.27,370.19v-6.71h9.66c1.83,0,3.32,1.5,3.32,3.36c0,1.85-1.49,3.36-3.32,3.36H313.27z"/>
	<path class="st6" d="M338.68,379.99c-1.89,0-3.42-1.55-3.42-3.46v-16.32h-3.22v16.72c0,3.48,2.79,6.3,6.24,6.3h9.14v-3.25H338.68z"
		/>
	<path class="st6" d="M359.96,360.22h-9.99v23.02h9.99c6.29,0,11.39-5.15,11.39-11.51C371.35,365.37,366.25,360.22,359.96,360.22
		 M359.96,379.99h-6.77v-16.52h6.77c4.51,0,8.17,3.7,8.17,8.26C368.13,376.29,364.47,379.99,359.96,379.99L359.96,379.99z"/>
	<path class="st6" d="M397.95,379.99h-7.33c-4.51,0-8.17-3.7-8.17-8.26c0-4.56,3.66-8.26,8.17-8.26h7.33v-3.25h-7.33
		c-6.29,0-11.39,5.15-11.39,11.51c0,6.36,5.1,11.51,11.39,11.51h7.33V379.99z"/>
	<path class="st6" d="M437.44,360.22h-12.31v23.02h3.22v-8.9h9.09c3.86,0,6.99-3.16,6.99-7.06
		C444.42,363.38,441.3,360.22,437.44,360.22 M437.44,371.09h-9.09v-7.62h9.09c2.08,0,3.77,1.71,3.77,3.81
		C441.21,369.38,439.52,371.09,437.44,371.09"/>
	<polygon class="st6" points="276.39,324.17 284.71,324.17 284.71,297.24 276.4,297.24 	"/>
	<polygon class="st6" points="273.82,297.24 253.37,297.24 253.37,324.19 261.78,324.19 261.78,314.45 267.63,314.45 269.92,308.56 
		261.78,308.56 261.78,303.1 271.66,303.1 	"/>
	<path class="st6" d="M325.02,297.24h-8.64l-9.58,26.93h8.04l1.03-3.61h9.38l1.09,3.61h8.27L325.02,297.24z M317.35,315.39
		l3.21-11.23l3.32,11.23H317.35z"/>
	<polygon class="st6" points="298.86,303.09 308.74,303.09 310.92,297.23 290.46,297.23 290.46,297.24 290.46,324.17 298.88,324.17 
		298.88,314.44 304.71,314.44 307,308.55 298.86,308.55 	"/>
	<rect x="239.81" y="396.5" class="st7" width="128.16" height="128.93"/>
</g>
<g>
	<defs>
		<rect id="SVGID_3_" x="239.81" y="396.5" width="128.16" height="128.93"/>
	</defs>
	<clipPath id="SVGID_4_">
		<use xlink:href="#SVGID_3_"  style="overflow:visible;"/>
	</clipPath>
	<path class="st8" d="M285.46,412.37l-22.83,22.97l-22.83-22.97H285.46z M262.64,435.34l22.83,22.97l22.83-22.97H262.64z
		 M285.46,458.31l22.83,22.97l22.83-22.97H285.46z M308.29,481.27l22.83,22.97l22.83-22.97H308.29z M331.12,504.24l22.83,22.97
		l22.83-22.97H331.12z M216.98,435.34l22.83,22.97l22.83-22.97H216.98z M239.81,458.31l22.83,22.97l22.83-22.97H239.81z
		 M262.64,481.27l22.83,22.97l22.83-22.97H262.64z M285.46,504.24l22.83,22.97l22.83-22.97H285.46z M216.98,389.41l22.83,22.97
		l22.83-22.97H216.98z M323.37,412.37l22.83,22.97l22.83-22.97H323.37z M346.2,435.34l22.83,22.97l22.83-22.97H346.2z
		 M300.54,389.41l22.83,22.97l22.83-22.97H300.54z M228.9,493.18l37.26,37.48h7.97l-45.23-45.5V493.18z M228.9,508.66l21.86,22h7.97
		l-29.83-30.02V508.66z"/>
</g>
<g>
	<defs>
		<rect id="SVGID_5_" x="128" y="33" width="500" height="500"/>
	</defs>
	<clipPath id="SVGID_6_">
		<use xlink:href="#SVGID_5_"  style="overflow:visible;"/>
	</clipPath>
	<polygon class="st9" points="302.57,512.06 291.95,512.06 266.23,483.68 266.23,512.06 254.49,512.06 254.49,464.92 265.12,464.92 
		290.83,493.3 290.83,464.92 302.57,464.92 	"/>
	<polygon class="st9" points="309.08,512.06 309.08,502.87 336.31,475.69 309.08,475.69 309.08,464.92 353.95,464.92 353.95,474.11 
		326.72,501.29 353.95,501.29 353.95,512.06 	"/>
	<path class="st10" d="M277.76,409.79c-13.15,0-23.81,7.92-23.81,22.98v25.03h11.85v-9.62h23.91v9.62h11.85v-25.03
		C301.57,417.72,290.91,409.79,277.76,409.79 M289.72,437.6h-23.91v-4.82c0-7.89,5.35-12.05,11.96-12.05
		c6.6,0,11.95,4.16,11.95,12.05V437.6z"/>
	<path class="st10" d="M354.59,410.95v25.03c0,15.06-10.66,22.99-23.81,22.99s-23.8-7.93-23.8-22.99v-25.03h11.85v25.03
		c0,7.89,5.35,12.05,11.95,12.05c6.6,0,11.96-4.16,11.96-12.05v-25.03H354.59z"/>
	<rect x="367.96" y="396.5" class="st11" width="128.16" height="128.93"/>
</g>
<g>
	<defs>
		<rect id="SVGID_7_" x="367.96" y="396.5" width="128.16" height="128.93"/>
	</defs>
	<clipPath id="SVGID_8_">
		<use xlink:href="#SVGID_7_"  style="overflow:visible;"/>
	</clipPath>
	<path class="st12" d="M386.69,468.24c-0.05,0.45-0.18,0.89-0.42,1.32c-0.88,1.62-2.94,2.24-4.63,1.67c-1.18-0.4-2.12-1.19-2.5-2.41
		c-0.24-0.75-0.18-1.62,0.06-2.36c0.57-1.74,1.99-3.09,3.89-3.08c0.81,0.01,1.52,0.31,2.05,0.81c0.8,0.45,1.41,1.21,1.65,2.12
		C386.99,466.98,386.93,467.65,386.69,468.24 M396.64,467.23c0.02,1.76-0.26,3.55-0.82,5.23c-0.06,0.37-0.14,0.73-0.26,1.07
		c-0.33,0.96-0.88,1.97-1.58,2.88c-0.61,0.97-1.38,1.8-2.36,2.35c-0.45,0.36-0.91,0.69-1.41,0.98c-5.19,2.97-13.3,1.97-17.21-2.78
		c-1.93-2.35-4.33-4.89-4.39-8.12c-0.05-3.12,1.12-6.71,2.92-9.22c3.39-4.72,10.2-8.07,15.78-5.65c4.53,1.97,8.56,5.32,9.14,9.95
		c0.02,0.04,0.04,0.07,0.05,0.11C396.9,465.17,396.84,466.18,396.64,467.23 M392.91,465.6c-0.26-1.43-0.83-2.78-1.69-3.95
		c-0.02-0.01-0.03-0.03-0.05-0.04c-0.36-0.78-0.83-1.48-1.68-2.04c-1.67-1.12-3.94-1.65-5.93-1.61c-0.1,0-0.2,0.02-0.29,0.04
		c-0.13,0-0.26-0.01-0.39-0.01c-2.14,0.03-3.45,0.73-5.04,2.06c-0.38,0.31-0.72,0.6-1.07,0.85c-0.01,0.01-0.01,0.01-0.02,0.02
		c-0.39,0.63-0.71,1.32-0.99,2.04c-0.05,0.1-0.09,0.21-0.13,0.31c0,0,0,0.01,0,0.01c-0.15,0.22-0.27,0.47-0.35,0.75
		c-0.06,0.2-0.1,0.42-0.12,0.65c-0.1,0.16-0.21,0.32-0.31,0.48c-0.27,0.44-0.32,0.89-0.23,1.3c-0.24,0.8-0.35,1.62-0.29,2.47
		c0,0.02-0.01,0.05-0.01,0.07c0.04,0.16,0.05,0.33,0.03,0.53c-0.04,0.36-0.02,0.75,0.03,1.17c0.5,1.33,1.15,2.61,2.16,3.63
		c1.51,1.51,3.76,1.86,5.81,2.01c4.04,0.29,7.24-1.48,9.11-5.11C392.42,469.36,392.96,467.44,392.91,465.6 M409.74,465.25
		c-0.04-2.22-0.3-4.47-0.57-6.7c-0.05-0.16-0.11-0.32-0.17-0.47c-1.24-3.36-2.87-6.88-5.1-9.69c-2.07-2.62-4.95-4.75-8.06-5.96
		c-2.73-1.06-5.59-1.01-8.45-0.96c-0.31-0.03-0.61-0.07-0.92-0.1c-5.17-0.51-9.94,0.93-14.01,3.62c-0.54,0.31-1.07,0.63-1.56,1.02
		c-0.12,0.1-0.24,0.23-0.37,0.38c-0.18,0.14-0.36,0.29-0.54,0.44c-0.55,0.22-1,0.58-1.44,1.15c-0.35,0.23-0.69,0.46-1.04,0.69
		c-0.51,0.34-0.77,0.8-0.85,1.28c-0.31,0.15-0.6,0.4-0.81,0.79c-0.3,0.54-0.6,1.08-0.9,1.62c-0.66,1.19-0.05,2.23,0.87,2.63
		c0.38,1.03,1.75,1.73,2.76,0.72l0.32-0.32c0.09-0.15,0.2-0.29,0.37-0.42c0.75-0.61,1.18-1.69,1.84-2.42
		c0.81-0.89,1.73-1.7,2.71-2.39c1.69-1.2,3.73-2.15,5.64-2.94c2.86-1.18,6.55-0.93,9.7,0.17c0.01,0,0.02,0,0.03,0
		c4.28,0.32,6.78,2.13,8.97,5.78c1.98,3.31,3.64,6.99,4.16,10.85c0.36,2.72,0.17,5.48-0.53,8.07c-0.65,1.45-1.39,2.86-2.21,4.24
		c-0.86,1.43-1.82,3.14-2.98,4.59c-0.82,0.78-1.7,1.49-2.67,2.12c-5.22,3.34-11.82,3.58-17.12,0.64c-0.76-0.38-1.47-0.82-2.26-1.21
		c-0.07-0.04-0.15-0.07-0.22-0.1c-0.91-0.87-1.86-1.73-2.97-2.27c-0.57-0.57-1.16-1.14-1.67-1.74c-0.07-0.09-0.15-0.18-0.22-0.27
		c-0.05-0.07-0.11-0.14-0.16-0.21c-0.46-0.75-0.85-1.49-1.16-2.16c-0.42-0.93-1.34-1.18-2.2-1c-1.36-0.08-2.71,1.04-2.24,2.66
		c0.68,2.31,1.56,4.55,2.61,6.72c0.22,0.45,0.52,0.74,0.85,0.92c0.3,0.38,0.57,0.78,0.83,1.17c0.41,0.34,0.81,0.68,1.21,0.98
		c0.81,0.61,1.61,1.24,2.42,1.85c0.27,0.12,0.54,0.26,0.8,0.43c0.05,0.03,0.09,0.07,0.13,0.11c0.65,0.16,1.24,0.4,1.89,0.74
		c0.15,0.08,0.27,0.17,0.38,0.27c2.2,0.79,4.49,1.33,6.84,1.38c2.99,0.06,5.77-0.85,8.49-2.02c2.72-1.17,5.46-2.26,8.18-3.4
		c0.73-0.31,1.42-0.65,2.07-1.02c0.06-0.08,0.12-0.15,0.18-0.23c2.39-1.51,3.97-3.67,5.19-6.08c1.11-1.56,2.06-3.22,2.6-5.16
		c0.68-2.46,1.11-4.96,1.36-7.47C409.75,466.12,409.75,465.68,409.74,465.25 M427.81,462.82c-0.11-0.79-0.29-1.56-0.43-2.33
		c0.03-0.38-0.02-0.75-0.15-1.1c-0.03-0.35-0.03-0.7,0-1.05c0.18-0.4,0.22-0.89,0.03-1.45c-2.05-6.02-4.09-13.26-8.65-18.02
		c-0.07-0.37-0.25-0.74-0.58-1.08c-6.04-6.27-13.9-11.24-22.4-13.27c-4.49-1.07-9.64-1.04-14.19-0.56
		c-4.89,0.52-9.96,1.44-14.52,3.33c-2.52,1.05-1.42,5.24,1.14,4.18c4.05-1.68,8.6-2.63,12.95-3.13c4.23-0.49,9.3-0.63,13.48,0.36
		c6.09,1.45,11.76,4.52,16.6,8.53c-0.17,0.79,0.1,1.63,1.04,2.11c6.67,3.44,8.77,12.15,11,18.7c0.01,0.02,0.01,0.03,0.02,0.04
		c0.01,0.47,0.02,0.93,0.03,1.4c0.06,0.14,0.1,0.28,0.12,0.43c-0.06,0.42-0.01,0.86,0.14,1.25c-0.01,0.04-0.01,0.08-0.02,0.12
		c0.01,0.03,0.02,0.06,0.02,0.1c0.02,0.15,0.04,0.3,0.06,0.44c0,0,0,0,0,0c0,0.01,0,0.01,0,0.02c0.12,0.99,0.2,1.97,0.21,2.97
		c0,0.09-0.01,0.17-0.02,0.25c0,0.1,0.01,0.2,0.01,0.3c-0.01,2.78-0.38,5.55-0.68,8.3c-0.45,4.14-1.25,7.89-3.22,11.28
		c-0.71-0.05-1.44,0.23-1.93,0.99c-2.27,3.52-4.93,6.73-8.02,9.56c-3.1,2.84-6.86,4.41-10.09,7.01c-0.73,0.33-1.47,0.65-2.21,0.94
		c-4.58,1.81-9.26,1.61-14.05,1.05c-1.31,0.1-2.73-0.11-4.13-0.37c-2.43-0.44-4.86-0.88-7.29-1.31c-1.54-0.27-3.21-0.63-4.48-1.59
		c-0.1-0.08-0.19-0.16-0.27-0.26c-1.85,0.13-2.54,2.96-0.85,4.03c0.04,0.82,0.5,1.62,1.48,1.96c5.04,1.72,9.81,3.4,15.2,3.38
		c5.38-0.01,11.45,0.11,16.62-1.5c1.34-0.42,2.65-0.94,3.93-1.54c0.83-0.7,1.65-1.42,2.5-2.07c2.07-1.57,3.87-3.4,5.87-5.05
		c2.08-1.71,4.08-3.4,5.91-5.38c1.26-1.37,2.36-2.86,3.48-4.35c0-0.11-0.01-0.22-0.02-0.32c3.19-3.99,4.98-8.59,5.6-13.74
		c0.39-3.24,0.81-6.51,0.95-9.77C427.99,465.36,427.98,464.09,427.81,462.82 M377.26,398.64c-0.05-0.08-0.11-0.15-0.17-0.22
		c-0.02-0.03-0.04-0.05-0.06-0.07c0,0-0.01-0.01-0.01-0.01c-0.05-0.06-0.09-0.12-0.15-0.18l-0.34-0.26
		c-0.26-0.15-0.54-0.23-0.85-0.23c-0.14-0.01-0.28,0-0.42,0.02c-0.14,0.01-0.28,0.03-0.42,0.06c-0.2,0.04-0.41,0.16-0.59,0.3
		c-0.54,0.33-0.97,0.95-0.94,1.6c0.03,0.88,0.58,1.49,1.38,1.76c0.23,0.08,0.46,0.12,0.7,0.16c0.3,0.08,0.59,0.08,0.89,0
		c0.28-0.08,0.53-0.22,0.74-0.43c0.23-0.3,0.37-0.45,0.48-0.81c0.05-0.19,0.08-0.38,0.08-0.57
		C377.58,399.36,377.47,398.95,377.26,398.64 M375.63,405.89c-0.07-0.99-0.68-1.81-1.64-2.07c-0.88-0.24-2.03,0.11-2.52,0.92
		c-0.09,0.11-0.17,0.23-0.23,0.36c-0.33,0.67-0.42,1.55-0.26,2.29c0.21,0.95,1.09,1.59,2.05,1.55c0.81-0.04,1.47-0.47,1.95-1.1
		C375.39,407.29,375.68,406.59,375.63,405.89 M370.62,401.82c0.02-1.24-1.01-2.11-2.21-2.13c-1.16-0.01-1.97,0.9-2.12,1.97
		c-0.27,0.73-0.25,1.62,0.17,2.26c0.74,1.12,2.29,1.47,3.29,0.49c0.15-0.15,0.28-0.33,0.39-0.54c0.08-0.08,0.15-0.17,0.21-0.26
		C370.72,403.08,370.78,402.42,370.62,401.82 M385.61,387.72c-1.93,4.04-3.85,8.09-5.42,12.28c-0.76,2.02-1.33,4.08-1.97,6.13
		c-0.62,2.01-1.53,3.91-1.96,5.99c-0.86,4.23,5.59,6.04,6.46,1.79c0.37-1.8,1.12-3.45,1.7-5.18c0.68-2.03,1.19-4.11,1.92-6.12
		c1.42-3.94,3.24-7.71,5.05-11.48C393.25,387.23,387.48,383.81,385.61,387.72 M406.64,390.03c-0.11,2.18-0.22,4.17-0.83,6.27
		c-0.65,2.23-1.36,4.44-2.04,6.67c-1.31,4.3-2.63,8.59-3.94,12.89c-1.45,4.75,5.93,6.77,7.38,2.05c1.4-4.59,2.81-9.18,4.21-13.77
		c0.68-2.21,1.43-4.42,2.03-6.65c0.65-2.44,0.71-4.93,0.84-7.44C414.55,385.08,406.89,385.1,406.64,390.03 M436.87,388.96
		c-0.23-5.55-8.84-5.58-8.61,0c0.25,5.97-1.03,11.68-2.61,17.4c-0.74,2.68-1.43,5.4-2.39,8.01c-0.99,2.69-2.35,5.2-2.98,8.02
		c-1.22,5.43,7.08,7.74,8.3,2.3c0.63-2.81,1.99-5.33,2.98-8.02c1.06-2.9,1.83-5.92,2.64-8.9
		C435.86,401.65,437.14,395.34,436.87,388.96 M431.14,532.69c-3.83-2.62-6.76-6.21-10.26-9.23c-1.94-1.67-3.88-3.51-5.59-5.42
		c-1.61-1.8-2.62-4.15-3.78-6.26c-2.08-3.8-7.87-0.4-5.78,3.4c1.31,2.38,2.49,4.89,4.24,6.97c1.83,2.17,4.02,4.22,6.17,6.07
		c3.96,3.41,7.28,7.31,11.62,10.28C431.33,540.95,434.69,535.12,431.14,532.69 M462.31,528.04c-6.84-2.99-13.48-6.61-19.39-11.22
		c-3.34-2.61-6.39-5.55-9.31-8.63c-0.06-0.12-0.13-0.23-0.2-0.34c-0.21-0.31-0.4-0.64-0.58-0.97c-0.29-0.28-0.52-0.63-0.7-1.01
		c-0.96-1.07-1.88-2.2-2.79-3.32c-0.09-0.11-0.19-0.27-0.3-0.45c-0.46-0.46-0.93-0.96-1.3-1.49c-0.06-0.03-0.12-0.06-0.18-0.08
		c-0.17-0.13-0.35-0.26-0.54-0.38c-0.18-0.11-0.36-0.19-0.55-0.26c-1.59-1.43-3.59-0.79-4.67,0.58c-0.28,0.33-0.51,0.71-0.66,1.12
		c0.84,3.01,3.04,5.29,5.1,7.72c2.27,2.67,4.84,5.3,7.46,7.62c2.88,2.56,5.4,5.59,8.73,7.54c1.13,0.66,2.1,1.44,3.01,2.26
		c4.3,2.73,8.82,5.09,13.5,7.14c1.67,0.73,3.57,0.48,4.58-1.21C464.35,531.23,463.96,528.76,462.31,528.04 M501.47,529.27
		c-10.72-8.62-23.03-14.63-35.1-21.07c-6.02-3.21-11.98-6.56-17.59-10.47c-2.72-1.9-5.34-3.93-7.82-6.14
		c-2.51-2.23-4.63-4.99-7.89-6.11c-2.49-0.86-3.76,2.39-2.29,3.98c0.02,0.02,0.04,0.04,0.05,0.06c0.27,0.56,0.62,1.02,1.11,1.4
		c0.87,1.2,1.75,2.37,2.68,3.51c2.02,1.66,3.98,3.38,5.89,5.17c0.46,0.43,0.91,0.86,1.36,1.3c0.59,0.44,1.08,1.03,1.72,1.36
		c0.25,0.13,0.45,0.32,0.61,0.55c0.07,0.04,0.13,0.07,0.19,0.11c2.97,1.57,5.97,2.96,8.81,4.77c2.95,1.86,5.84,3.8,8.83,5.59
		c11.66,6.98,24.09,12.9,34.36,21.96c1.88,1.66,4.48-0.29,4.12-2.17C502.09,532.51,503.08,530.57,501.47,529.27 M499.59,455.51
		c-6.16,0.94-11.98,3-17.76,5.2c-1.3,0.31-2.59,0.65-3.86,1.09c-1.94,0.68-3.88,1.36-5.82,2.04c-0.29,0.1-0.59,0.22-0.9,0.34
		c-1.69,0.43-3.38,0.86-5.07,1.28c-0.17,0.03-0.33,0.07-0.48,0.12c-3.83,0.95-7.66,1.87-11.51,2.71c-1.88,0.13-3.76,0.21-5.64,0.31
		c-2.12,0.11-5.75,0.96-7.77,0.08c-0.1-0.04-0.19-0.08-0.29-0.11c-0.34-0.36-0.73-0.64-1.27-0.79c-0.69-0.19-1.6-0.1-2.21,0.29
		c-1.18,0.77-2,2.66-1.03,3.95c0.13,0.17,0.27,0.34,0.4,0.5c0.01,0.05,0.01,0.11,0.02,0.17c0.14,0.49,0.38,0.91,0.74,1.27
		c0.19,0.15,0.39,0.3,0.58,0.45c0.44,0.26,0.91,0.39,1.41,0.39c0.42,0.23,0.87,0.42,1.34,0.6c0.97,0.35,2.12-0.05,2.85-0.8
		c0.66-0.01,1.34-0.04,2.04-0.07c2.63-0.13,5.26-0.24,7.88-0.41c0.39,0.09,0.82,0.1,1.29,0c0.2-0.04,0.39-0.09,0.59-0.13
		c5.12-0.42,10.12-1.32,15.04-2.88c1.43-0.45,2.86-0.94,4.27-1.45c0.63,0.73,1.59,1.17,2.78,0.93c7.55-1.53,14.63-4.58,21.79-7.36
		c1.05-0.41,1.63-1.22,1.84-2.1c0.09-0.01,0.18-0.03,0.27-0.05C504.75,460.52,503.21,454.95,499.59,455.51 M502.69,433.53
		c-0.66-0.7-1.65-1.03-2.87-0.55l-16.1,6.32c-5.42,2.13-10.81,4.52-16.4,6.16c-10.78,3.17-22.46,3.51-33.57,4.69
		c-3.94,0.42-3.98,6.68,0,6.25c0.06-0.01,0.12-0.01,0.19-0.02c0.27,0.09,0.55,0.15,0.83,0.19c12.37,1.63,24.61-1.62,36.45-4.88
		c11.06-3.04,22.23-6.3,32.03-12.48C505.71,437.67,504.72,434.37,502.69,433.53 M499.65,411.22c-8.17,3.88-16.65,6.93-24.53,11.45
		c-0.17,0.1-0.33,0.21-0.46,0.33c-3.35,1.37-6.71,2.69-10.15,3.79c-5.84,1.87-11.88,2.61-17.87,3.81
		c-6.27,1.26-12.4,3.13-18.51,5.01c-3.21,0.99-1.86,6.05,1.35,5.12c3.53-0.21,6.89-1.51,10.37-2.08c3.88-0.64,7.75-1.29,11.6-2.13
		c2.11-0.46,4.2-0.98,6.29-1.52c1.88-0.32,3.75-0.72,5.63-1.25c4.37-1.24,8.66-2.73,12.88-4.43c0.5-0.2,0.88-0.51,1.16-0.87
		l22.53-9.76c0.88-0.38,1.29-1.02,1.36-1.71c0.41-0.31,0.67-0.68,0.82-1.09c0.07-0.03,0.14-0.07,0.21-0.1
		C505.37,414.34,502.7,409.78,499.65,411.22 M377.26,515.04c-0.69-0.7-1.51-1.04-2.35-1.09c-0.65-0.23-1.41-0.27-2.27-0.02
		c-0.09,0.02-0.17,0.05-0.25,0.08c-0.58,0.11-1.07,0.34-1.47,0.65c-0.15,0.11-0.3,0.22-0.43,0.35c-0.04,0.02-0.07,0.05-0.11,0.07
		c-0.42,0.21-0.81,0.46-1.19,0.72c-0.43,0.22-0.83,0.52-1.19,0.93c-0.22,0.26-0.4,0.52-0.55,0.78c-0.13,0.11-0.27,0.21-0.42,0.31
		c-0.82,0.52-1.79,0.78-2.62,1.29c-1.37,0.85-2.05,2.12-2.13,3.75c-0.07,1.35,4.34,9.17,7.52,7.37c1.87-1.06,3.62-2.35,4.6-4.33
		c0.19-0.38,0.35-0.75,0.52-1.11c1.04-1.31,1.87-2.84,2.76-4.21c0.41-0.63,0.59-1.27,0.61-1.88
		C378.55,517.42,378.14,515.93,377.26,515.04 M383.45,525.07c-0.09-0.38-0.18-0.46-0.38-0.72c-0.16-0.21-0.35-0.4-0.58-0.54
		c-0.04-0.02-0.1-0.05-0.16-0.08c-0.01-0.01-0.02-0.01-0.03-0.02c-0.04-0.02-0.07-0.03-0.11-0.05c-0.02-0.01-0.04-0.02-0.06-0.02
		c-0.07-0.03-0.13-0.05-0.17-0.06c-0.09-0.02-0.19-0.03-0.28-0.04c-0.19-0.03-0.39-0.06-0.58-0.06c-0.13,0-0.27,0.03-0.4,0.05
		c-0.14,0.02-0.25,0.02-0.38,0.07c-0.41,0.15-0.71,0.31-1.03,0.61c-0.33,0.31-0.46,0.64-0.62,1.05c-0.1,0.36-0.1,0.73,0,1.09
		c0.06,0.27,0.18,0.5,0.37,0.7c0.14,0.22,0.33,0.4,0.57,0.53c0.32,0.19,0.66,0.28,1.03,0.28c0.18,0.02,0.36,0.04,0.55,0.04
		c0.61,0,1.25-0.19,1.68-0.65c0.27-0.27,0.47-0.59,0.58-0.96c0.06-0.19,0.09-0.44,0.08-0.64
		C383.53,525.48,383.49,525.22,383.45,525.07 M386.72,518.99c0,0.21-0.02,0.42-0.07,0.63c-0.11,0.46-0.43,0.84-0.72,1.19
		c-0.9,1.07-2.36,1.62-3.66,0.9c-0.74-0.41-1.24-1.15-1.35-1.98c-0.12-0.86,0.16-1.68,0.75-2.31c0.43-0.47,1-0.72,1.58-0.94
		c0.66-0.25,1.27-0.23,1.96-0.13c0.54,0.08,1,0.55,1.29,0.99C386.81,517.84,386.84,518.45,386.72,518.99 M394.37,514.47
		c-0.03-0.35-0.12-0.69-0.29-0.99c-0.59-1.08-1.96-1.6-3.14-1.31c-0.63,0.11-1.16,0.36-1.64,0.84c-0.35,0.34-0.66,0.77-0.9,1.21
		c-0.43,0.81-0.57,1.75-0.09,2.58c0.38,0.65,1.1,1.04,1.81,1.21c0.06,0.01,0.12,0.02,0.17,0.03c0.33,0.16,0.7,0.26,1.1,0.29
		c1.24,0.07,2.44-0.52,2.99-1.67C394.69,515.96,394.71,515.12,394.37,514.47 M402.04,513.74c-0.05,0.94-0.39,1.84-1.23,2.34
		c-0.6,0.35-1.24,0.32-1.89,0.27c-0.2-0.02-0.4-0.03-0.6-0.05c-0.72-0.08-1.31-0.3-1.77-0.89c-0.62-0.8-0.69-1.91-0.18-2.8
		c0.36-0.63,0.97-1.11,1.66-1.32c0.11-0.05,0.21-0.09,0.32-0.11c0.64-0.11,1.22-0.11,1.81,0.06c0.02,0,0.04,0.01,0.06,0.01
		c0.38,0.07,0.69,0.25,0.93,0.51C401.73,512.23,402.08,512.97,402.04,513.74 M405.93,520c-0.38-0.91-1.29-1.52-2.28-1.48
		c-0.54,0.02-1,0.21-1.39,0.52c-0.03,0.02-0.06,0.03-0.09,0.04c-0.7,0.42-1.15,1.2-1.16,2.02c0,0.19,0.02,0.39,0.07,0.58
		c0.03,0.36,0.16,0.76,0.34,1.06c0.31,0.5,0.8,0.89,1.36,1.05c0.41,0.12,0.87,0.09,1.28-0.01c0.47-0.12,0.99-0.47,1.27-0.91
		c0.17-0.16,0.33-0.37,0.45-0.58C406.2,521.61,406.23,520.73,405.93,520L405.93,520z M500.88,520.34c-0.24,1.35-1.3,2.43-2.71,2.43
		c-0.56,0-1.26-0.15-1.74-0.45c-0.62-0.39-1.05-1.05-1.17-1.78c-0.12-0.78-0.12-1.52,0.3-2.22c0.39-0.65,1.14-1.15,1.91-1.21
		c0.29-0.13,0.6-0.21,0.88-0.19c0.49,0.04,0.88,0.11,1.32,0.34c0.38,0.2,0.68,0.54,0.91,0.89
		C501.01,518.82,501.01,519.6,500.88,520.34 M493.82,514.34c-0.05-0.46-0.23-0.89-0.6-1.21c-0.64-0.55-1.3-0.87-2.15-0.92
		c-0.62-0.04-1.3,0.16-1.81,0.5c-1.55,1.03-2.06,3.31-0.45,4.56c0.48,0.38,1.02,0.72,1.63,0.85c1.05,0.23,2.08-0.12,2.73-0.98
		c0.43-0.57,0.72-1.28,0.75-1.99C493.93,514.87,493.89,514.6,493.82,514.34 M485.35,510.91c0-0.02,0.01-0.05,0.01-0.07
		c0.01-1.08-0.7-1.9-1.63-2.35c-0.53-0.26-1.08-0.38-1.66-0.22c-0.37,0.1-0.76,0.34-1.03,0.64c-0.39,0.28-0.67,0.66-0.86,1.11
		c-0.24,0.56-0.34,1.14-0.18,1.75c0.16,0.6,0.57,1.15,1.1,1.47c0.69,0.42,1.6,0.56,2.38,0.33c0.41-0.12,0.75-0.34,1.04-0.65
		c0.06-0.07,0.11-0.12,0.15-0.18c0-0.01,0.01-0.01,0.01-0.01C485.15,512.23,485.4,511.58,485.35,510.91 M469.24,500.31
		c-0.22-0.37-0.49-0.66-0.85-0.89c-0.11-0.07-0.24-0.13-0.37-0.18c-0.32-0.17-0.66-0.26-1.02-0.26c-0.8-0.07-1.65,0.12-2.24,0.7
		c-0.81,0.8-0.93,2.08-0.36,3.04c0.23,0.4,0.59,0.74,1,0.95c0.51,0.26,0.82,0.3,1.39,0.36c0.47,0.05,0.96-0.07,1.37-0.3
		c0.28-0.16,0.48-0.35,0.66-0.57c0.29-0.3,0.51-0.65,0.64-1.06C469.64,501.55,469.54,500.81,469.24,500.31 M461.57,499.11
		c-1.17,1.14-3.15,0.92-4.15-0.26c-0.08-0.06-0.16-0.12-0.23-0.2c-0.36-0.36-0.67-1.01-0.63-1.53c0.04-0.52,0.12-0.94,0.4-1.39
		c0.13-0.2,0.28-0.37,0.45-0.53c0.62-0.77,1.65-1.04,2.6-0.83c0.35,0.08,0.64,0.26,0.88,0.49c0.64,0.36,1.14,0.91,1.37,1.64
		C462.54,497.41,462.24,498.45,461.57,499.11 M454.47,491.83c-0.03-0.12-0.09-0.22-0.13-0.34c-0.13-0.3-0.28-0.56-0.52-0.8
		c-0.36-0.36-0.82-0.58-1.3-0.73c-0.52-0.16-1.19-0.06-1.66,0.22c-0.17,0.1-0.35,0.24-0.49,0.41c-0.39,0.33-0.66,0.76-0.82,1.26
		c-0.26,0.82,0.03,1.73,0.59,2.35c0.47,0.52,1.15,0.67,1.82,0.72c0.59,0.04,1.18-0.18,1.64-0.54c0.26-0.2,0.47-0.41,0.65-0.7
		c0.09-0.16,0.19-0.41,0.24-0.58c0.06-0.2,0.09-0.43,0.09-0.64C454.54,492.28,454.52,492,454.47,491.83 M441.33,484.72
		c-0.84,0.65-2.12,0.7-3.08,0.29c-1.21-0.51-2.02-1.86-1.62-3.19c0.24-0.8,0.89-1.48,1.7-1.7c0.56-0.15,1.02-0.09,1.58-0.01
		c0.44,0.06,0.83,0.39,1.11,0.75c0.36,0.24,0.68,0.58,0.88,0.94C442.45,482.79,442.22,484.03,441.33,484.72 M452.81,479.48
		c-0.86-0.9-2.18-0.99-3.25-0.43c-0.9,0.47-1.59,1.48-1.61,2.51c-0.01,0.34,0.06,0.66,0.18,0.95c0.17,0.63,0.54,1.18,1.13,1.51
		c0.45,0.25,0.96,0.42,1.48,0.43c1.29,0.03,2.23-0.89,2.64-2.04C453.72,481.44,453.52,480.23,452.81,479.48 M460.97,478.94
		c-0.05-0.2-0.11-0.4-0.22-0.57c-0.28-0.44-0.74-0.91-1.29-0.99c-0.34-0.05-0.69-0.12-1.03-0.11c-0.55,0.02-1.05,0.22-1.45,0.55
		c0,0,0,0,0,0c-1.11,0.66-1.54,2.14-0.9,3.28c0.22,0.39,0.55,0.72,0.95,0.94c0.25,0.14,0.54,0.24,0.84,0.29
		c0.46,0.13,0.96,0.14,1.42,0.04c1.09-0.23,1.92-1.27,1.93-2.38C461.21,479.62,461.13,479.26,460.97,478.94 M469.67,477.77
		c0-0.01,0-0.02,0-0.04c0-0.83-0.43-1.62-1.15-2.04c-0.47-0.27-1.07-0.37-1.59-0.38c-1.31-0.02-2.3,1.01-2.6,2.23
		c-0.14,0.56-0.13,1.15,0.08,1.69c0.19,0.54,0.56,1.01,1.05,1.31c0.68,0.41,1.52,0.47,2.26,0.23c0.37-0.08,0.71-0.22,1.01-0.43
		c0.47-0.33,0.83-0.73,0.99-1.29C469.81,478.66,469.8,478.18,469.67,477.77 M486.6,473.31c-0.35-0.6-0.87-0.93-1.47-1.08
		c-0.54-0.32-1.22-0.41-1.82-0.25c-1.05,0.28-1.67,1.19-1.83,2.2v0v0v0c-0.07,0.21-0.12,0.42-0.12,0.7
		c-0.01,0.43,0.1,0.84,0.31,1.21c0.33,0.58,0.86,0.96,1.48,1.17c0.97,0.33,2.29-0.01,3.01-0.73
		C486.96,475.73,487.18,474.31,486.6,473.31 M495.04,469.52c-0.83-0.81-2.15-1.13-3.18-0.49c-0.05,0.03-0.08,0.07-0.13,0.1
		c-0.5,0.19-0.9,0.54-1.18,1.01c-0.3,0.5-0.34,1.11-0.27,1.67c0.01,0.04,0.02,0.09,0.03,0.13c0.01,0.17,0.03,0.34,0.07,0.5
		c0.19,0.75,0.88,1.45,1.63,1.61c0.27,0.06,0.54,0.07,0.8,0.05c1.16,0.08,2.35-0.49,2.84-1.66
		C496.06,471.41,495.83,470.28,495.04,469.52 M444,394.35c-0.09-0.08-0.18-0.15-0.27-0.21c-0.08-0.06-0.17-0.14-0.26-0.2
		c-0.03-0.01-0.05-0.03-0.08-0.04c-0.17-0.08-0.38-0.18-0.57-0.23c0,0,0,0-0.01,0c-0.12-0.06-0.23-0.11-0.36-0.14
		c-0.29-0.09-0.57-0.1-0.86-0.04c-0.29,0.01-0.55,0.1-0.8,0.26c-0.46,0.3-0.86,0.74-0.99,1.29c-0.13,0.56-0.09,1.17,0.22,1.67
		c0.07,0.12,0.16,0.24,0.25,0.35c0.04,0.05,0.08,0.1,0.13,0.14c0.03,0.03,0.05,0.06,0.08,0.09c0.06,0.06,0.13,0.12,0.2,0.17
		c0.07,0.06,0.14,0.11,0.22,0.15c0,0,0,0,0.01,0l0,0c0.05,0.03,0.11,0.07,0.16,0.1c0.19,0.09,0.44,0.22,0.67,0.26
		c0.6,0.11,0.7,0.09,1.31-0.01c0.36-0.1,0.68-0.29,0.95-0.56c0.27-0.27,0.45-0.59,0.55-0.95C444.75,395.74,444.57,394.86,444,394.35
		 M443.26,402.69c-0.14-0.62-0.52-1.1-0.99-1.49c-0.05-0.06-0.1-0.12-0.16-0.18c-0.47-0.4-1-0.7-1.63-0.69
		c-0.21,0-0.43,0.03-0.64,0.09c-0.24,0.04-0.48,0.11-0.72,0.25c-0.45,0.26-0.87,0.78-0.99,1.29c-0.01,0.05-0.02,0.11-0.02,0.16
		c-0.03,0.08-0.07,0.16-0.1,0.25c-0.28,0.9-0.07,1.9,0.57,2.59c0.37,0.4,0.91,0.7,1.44,0.81c0.72,0.14,1.51,0.11,2.13-0.32
		C443.07,404.82,443.51,403.82,443.26,402.69z M440.82,409.81c-0.55-0.89-1.65-1.46-2.7-1.14c-0.04,0.01-0.07,0.03-0.11,0.04
		c-0.12,0.02-0.24,0.05-0.35,0.08c-0.25,0.07-0.56,0.22-0.79,0.38c-0.46,0.31-0.8,0.62-1.02,1.15c-0.25,0.59-0.27,1.17-0.01,1.77
		c0.32,0.76,0.92,1.25,1.69,1.51c0.5,0.17,1.18,0.22,1.7,0.08c0.68-0.19,1.31-0.64,1.62-1.3
		C441.21,411.59,441.32,410.6,440.82,409.81 M439,419.14c-0.05-0.4-0.07-0.5-0.28-0.92c-0.11-0.21-0.17-0.3-0.39-0.54
		c-0.28-0.31-0.65-0.53-1.05-0.67c-0.01,0-0.02-0.01-0.03-0.01c-0.02-0.01-0.03-0.01-0.04-0.02c0,0-0.01,0-0.01,0
		c-0.06-0.02-0.12-0.05-0.19-0.07c-0.4-0.16-0.99-0.13-1.4-0.01c-0.43,0.12-0.81,0.37-1.12,0.68c-0.66,0.65-0.88,1.7-0.64,2.58
		c0.19,0.71,0.68,1.34,1.32,1.69c0.98,0.53,2.21,0.38,3.02-0.4C438.82,420.86,439.12,420,439,419.14L439,419.14z M434.61,426.96
		c-0.6,0.61-1.44,0.85-2.27,0.73c-0.61-0.08-1.19-0.4-1.5-0.95c-0.22-0.38-0.27-0.77-0.22-1.16c-0.06-0.32-0.06-0.65,0.03-0.98
		c0.27-0.97,1.15-1.61,2.13-1.64c0.14,0,0.28,0.02,0.41,0.05c0.1,0,0.2,0,0.31,0.02c0.6,0.08,1.11,0.35,1.48,0.83
		C435.7,424.79,435.39,426.17,434.61,426.96 M449.14,424.42c-0.73-0.64-1.73-0.78-2.59-0.33c-0.27,0.14-0.53,0.35-0.73,0.6
		c-0.43,0.39-0.75,0.91-0.83,1.5c-0.26,1.91,2.18,3,3.66,2.06c0.66-0.41,1.13-1.09,1.23-1.86
		C449.98,425.67,449.69,424.91,449.14,424.42 M457.34,422.06c-0.91-0.87-2.41-0.8-3.21,0.07c0,0,0,0-0.01,0
		c-0.1,0.08-0.18,0.16-0.26,0.24c-0.5,0.42-0.82,1.07-0.82,1.79c0,1.24,0.91,2.25,2.07,2.56c1.39,0.37,2.83-0.41,3.03-1.89
		C458.27,423.86,458.07,422.77,457.34,422.06 M465.33,421.66c-0.23-0.71-0.82-1.28-1.62-1.5c-0.24-0.07-0.47-0.09-0.71-0.09
		c0,0-0.01-0.01-0.01-0.01c-0.83-0.44-1.79-0.19-2.29,0.6c-0.49,0.78-0.64,1.79-0.36,2.67c0.37,1.14,1.46,1.66,2.58,1.63
		c0.61-0.01,1.24-0.14,1.69-0.59c0.15-0.15,0.27-0.32,0.38-0.51C465.55,423.21,465.65,422.35,465.33,421.66 M479.91,414.99
		c-0.03-0.71-0.48-1.32-1.21-1.56c-1.14-0.37-2.66-0.34-3.3,0.85c-0.55,1.04-1,2.45-0.03,3.4c0.84,0.83,2.44,0.94,3.47,0.41
		c0.57-0.3,0.99-0.96,1.19-1.56C480.2,416.01,480.14,415.46,479.91,414.99L479.91,414.99z M487.34,411.16
		c-0.04-0.32-0.14-0.64-0.3-0.93c-0.55-0.92-1.53-1.31-2.49-1.25c-0.38-0.08-0.79-0.04-1.16,0.18c-0.27,0.16-0.49,0.38-0.67,0.62
		c-0.31,0.31-0.56,0.7-0.68,1.17c-0.25,0.96,0.01,2,0.73,2.7c0.72,0.7,1.84,0.92,2.8,0.68c1.21-0.3,1.84-1.47,1.83-2.66
		C487.4,411.5,487.37,411.33,487.34,411.16 M495.3,406.26c-0.38-0.31-0.82-0.52-1.28-0.65c-0.09-0.05-0.18-0.09-0.28-0.13
		c-1.67-0.59-3.49,0.42-3.89,2.15c-0.19,0.85-0.17,1.75,0.3,2.5c0.46,0.73,1.43,1.32,2.27,1.44c1.72,0.25,3.47-0.89,3.74-2.65
		C496.31,407.88,496.14,406.95,495.3,406.26"/>
</g>
<g>
	<defs>
		<rect id="SVGID_9_" x="128" y="33" width="500" height="500"/>
	</defs>
	<clipPath id="SVGID_10_">
		<use xlink:href="#SVGID_9_"  style="overflow:visible;"/>
	</clipPath>
	<path class="st13" d="M395,447.13h32.44v10.81h-44.1v-28.18h29.67c2.2,0,3.99-1.8,3.99-4.01s-1.79-4.01-3.99-4.01h-29.67v-10.81
		h30.78c7.94,0,14.38,6.48,14.38,14.47c0,7.99-6.44,14.48-14.38,14.48H395V447.13z"/>
	<path class="st13" d="M458.57,409.97c-16.02,0-25.82,10.96-25.82,24.47c0,13.51,9.8,24.47,25.82,24.47
		c16.02,0,25.82-10.96,25.82-24.47C484.4,420.92,474.59,409.97,458.57,409.97 M458.57,448.16c-8.46,0-13.63-6.14-13.63-13.73
		s5.17-13.73,13.63-13.73c8.45,0,13.63,6.15,13.63,13.73S467.03,448.16,458.57,448.16"/>
	<path class="st13" d="M395,501.2h32.44v10.81h-44.1v-28.18h29.67c2.2,0,3.99-1.79,3.99-4.01c0-2.22-1.79-4.01-3.99-4.01h-29.67
		v-10.81h30.78c7.94,0,14.38,6.48,14.38,14.47c0,8-6.44,14.48-14.38,14.48H395V501.2z"/>
	<path class="st13" d="M482.72,499.43c0,6.95-6.15,12.57-13.72,12.57H438.5V501.2h29.11c2.13,0,3.86-1.74,3.86-3.88
		c0-2.14-1.73-3.88-3.86-3.88H438.5v-9.86h29.11c2.13,0,3.86-1.74,3.86-3.88c0-2.15-1.73-3.88-3.86-3.88H438.5v-10.81H469
		c7.57,0,13.72,5.63,13.72,12.58c0,6.07-3.09,9.47-7.58,10.93C479.64,489.97,482.72,493.36,482.72,499.43"/>
	<rect x="503.92" y="513.91" class="st14" width="2.2" height="11.6"/>
	<rect x="503.92" y="518.5" class="st14" width="12.28" height="2.54"/>
	<path class="st14" d="M503.92,499.35v2.49l5.9,4.05l-5.9,4.13l4.23-0.01l4.39-3.42l0.03-1.5l-4.5-3.26h8.13v-2.49H503.92z
		 M503.92,512.52h12.28v-2.49h-12.28V512.52z"/>
</g>
</svg>
